<?xml version="1.0" standalone="no"?>
<!DOCTYPE svg PUBLIC "-//W3C//DTD SVG 20010904//EN"
 "http://www.w3.org/TR/2001/REC-SVG-20010904/DTD/svg10.dtd">
<svg version="1.0" xmlns="http://www.w3.org/2000/svg"
 width="389.000000pt" height="270.000000pt" viewBox="0 0 389.000000 270.000000"
 preserveAspectRatio="xMidYMid meet">

<g transform="translate(0.000000,270.000000) scale(0.100000,-0.100000)"
fill="#000000" stroke="none">
<path d="M1358 1603 c23 -5 23 -5 20 -159 l-3 -154 33 0 32 0 0 74 0 75 48 4
47 3 -47 2 -48 2 0 75 0 75 69 0 70 0 4 -42 4 -43 1 48 2 47 -127 -1 c-71 -1
-118 -4 -105 -6z"/>
<path d="M2331 1588 c1 -17 2 -19 6 -5 3 12 15 17 44 17 l39 0 0 -155 0 -155
30 0 30 0 0 154 0 155 48 4 c26 2 -8 4 -75 5 -122 2 -123 2 -122 -20z"/>
<path d="M3083 1603 c15 -4 17 -20 17 -159 l0 -154 28 0 27 0 -3 104 c-3 94
-1 105 15 109 16 4 17 5 1 6 -15 1 -18 10 -18 51 l0 50 -42 -1 c-24 -1 -35 -3
-25 -6z"/>
<path d="M1095 1470 l-160 -96 -3 -188 -2 -188 32 20 c18 11 89 53 158 92 69
39 128 75 133 79 4 4 6 91 5 192 l-3 185 -160 -96z"/>
<path d="M1728 1513 c6 -2 18 -2 25 0 6 3 1 5 -13 5 -14 0 -19 -2 -12 -5z"/>
<path d="M2668 1513 c7 -3 16 -2 19 1 4 3 -2 6 -13 5 -11 0 -14 -3 -6 -6z"/>
<path d="M2928 1513 c6 -2 18 -2 25 0 6 3 1 5 -13 5 -14 0 -19 -2 -12 -5z"/>
<path d="M1657 1490 c-55 -44 -53 -140 4 -181 17 -11 33 -18 36 -15 4 3 1 6
-5 6 -17 0 -17 197 1 203 7 3 8 6 1 6 -6 1 -23 -8 -37 -19z"/>
<path d="M1902 1420 c3 -95 11 -113 58 -124 14 -3 19 -3 13 0 -9 4 -13 36 -13
110 l0 104 -31 0 -31 0 4 -90z"/>
<path d="M2050 1400 l0 -110 28 0 27 0 1 110 1 110 -28 0 -29 0 0 -110z"/>
<path d="M2185 1400 l0 -110 28 0 27 0 0 87 c0 68 4 91 18 107 16 20 16 20 0
7 -16 -12 -18 -11 -18 3 0 11 -9 16 -27 16 l-28 0 0 -110z"/>
<path d="M2591 1479 c-26 -25 -31 -38 -31 -77 0 -46 14 -72 50 -99 13 -10 15
1 12 89 -3 76 0 103 10 109 9 6 9 9 1 9 -6 0 -25 -14 -42 -31z"/>
<path d="M2718 1503 c7 -3 12 -24 12 -54 0 -48 1 -49 30 -49 23 0 30 4 30 20
0 22 -56 90 -74 89 -7 0 -7 -2 2 -6z"/>
<path d="M2861 1489 c-50 -47 -54 -113 -10 -164 17 -19 36 -35 43 -34 7 0 7 2
-1 6 -9 3 -13 34 -13 103 0 69 4 100 13 103 6 3 7 6 1 6 -5 1 -20 -8 -33 -20z"/>
<path d="M2998 1490 c17 -11 32 -24 32 -30 0 -5 5 -10 10 -10 6 0 9 15 9 33
-1 23 -3 26 -6 9 l-4 -22 -26 20 c-14 11 -31 20 -37 20 -6 0 4 -9 22 -20z"/>
<path d="M1790 1403 c0 -72 -4 -103 -12 -106 -8 -3 -9 -6 -2 -6 6 -1 23 11 37
25 46 46 47 122 1 164 l-24 23 0 -100z"/>
<path d="M3248 1395 l-3 -105 28 0 27 0 0 83 c0 80 -15 127 -40 127 -5 0 -10
-47 -12 -105z"/>
<path d="M2763 1337 c-4 -7 -19 -21 -33 -30 -13 -9 -21 -17 -17 -17 14 0 55
31 61 46 7 18 0 18 -11 1z"/>
<path d="M3009 1313 c-13 -16 -12 -17 4 -4 9 7 17 15 17 17 0 8 -8 3 -21 -13z"/>
<path d="M1728 1283 c7 -3 16 -2 19 1 4 3 -2 6 -13 5 -11 0 -14 -3 -6 -6z"/>
<path d="M2668 1283 c6 -2 18 -2 25 0 6 3 1 5 -13 5 -14 0 -19 -2 -12 -5z"/>
<path d="M2923 1283 c9 -2 23 -2 30 0 6 3 -1 5 -18 5 -16 0 -22 -2 -12 -5z"/>
<path d="M1402 1185 c0 -16 2 -22 5 -12 2 9 2 23 0 30 -3 6 -5 -1 -5 -18z"/>
<path d="M1420 1186 c0 -31 6 -34 13 -6 3 11 1 23 -4 26 -5 3 -9 -6 -9 -20z"/>
<path d="M1536 1193 c-6 -14 -5 -15 5 -6 7 7 10 15 7 18 -3 3 -9 -2 -12 -12z"/>
<path d="M1980 1183 c0 -21 3 -24 9 -14 5 8 7 20 4 28 -8 21 -13 15 -13 -14z"/>
<path d="M2366 1193 c-6 -14 -5 -15 5 -6 7 7 10 15 7 18 -3 3 -9 -2 -12 -12z"/>
<path d="M2612 1194 c-7 -8 -8 -14 -3 -14 10 0 25 19 20 25 -2 1 -10 -3 -17
-11z"/>
<path d="M2692 1194 c-7 -8 -8 -14 -3 -14 10 0 25 19 20 25 -2 1 -10 -3 -17
-11z"/>
<path d="M2737 1189 c4 -13 8 -18 11 -10 2 7 -1 18 -6 23 -8 8 -9 4 -5 -13z"/>
<path d="M1636 1192 c-2 -4 -1 -14 4 -22 7 -11 9 -9 7 8 -1 24 -3 26 -11 14z"/>
<path d="M1445 1181 c-3 -5 -2 -12 3 -15 5 -3 9 1 9 9 0 17 -3 19 -12 6z"/>
<path d="M2126 1177 c3 -10 9 -15 12 -12 3 3 0 11 -7 18 -10 9 -11 8 -5 -6z"/>
<path d="M3130 1175 c0 -8 2 -15 4 -15 2 0 6 7 10 15 3 8 1 15 -4 15 -6 0 -10
-7 -10 -15z"/>
<path d="M1828 1163 c7 -3 16 -2 19 1 4 3 -2 6 -13 5 -11 0 -14 -3 -6 -6z"/>
</g>
</svg>
